<?xml version="1.0" encoding="utf-8"?>
<!-- Generator: Adobe Illustrator 23.0.2, SVG Export Plug-In . SVG Version: 6.00 Build 0)  -->
<svg version="1.1" xmlns="http://www.w3.org/2000/svg" xmlns:xlink="http://www.w3.org/1999/xlink" x="0px" y="0px"
	 viewBox="0 0 170.53 165.47" style="enable-background:new 0 0 170.53 165.47;" xml:space="preserve">
<style type="text/css">
	.st0{fill:#FFFFFF;}
	.st1{fill:#FFDF00;stroke:#FFFFFF;stroke-width:0.6;stroke-miterlimit:10;}
	.st2{fill:#FFDA00;}
	.st3{fill:#2072B6;}
	.st4{fill:none;}
</style>
<g id="::_Wordmark">
	<g>
		<polygon class="st0" points="61.6,97.42 51.52,97.42 51.52,100.08 55.11,100.08 55.11,109.81 58.36,109.81 58.36,100.08 
			61.6,100.08 		"/>
		<polygon class="st0" points="62.73,97.42 62.73,100.08 65.97,100.08 65.97,109.81 69.22,109.81 69.22,100.08 72.8,100.08 
			72.8,97.42 		"/>
		<polygon class="st0" points="97.49,109.81 97.49,97.42 94.39,97.42 94.39,104.83 88.87,97.42 85.78,97.42 85.78,109.81 
			88.87,109.81 88.87,102.49 94.39,109.81 		"/>
		<polygon class="st0" points="74.38,109.81 77.62,109.81 83.53,109.81 83.53,107.15 77.62,107.15 77.62,104.72 82.63,104.72 
			82.63,102.06 77.62,102.06 77.62,100.08 83.53,100.08 83.53,97.42 74.38,97.42 		"/>
		<polygon class="st0" points="99.95,109.81 103.2,109.81 103.2,104.8 108.43,104.8 108.43,102.14 103.2,102.14 103.2,100.08 
			109.41,100.08 109.41,97.42 99.95,97.42 		"/>
		<polygon class="st0" points="38.56,97.42 35.04,106.13 35.01,106.13 31.48,97.42 28.35,97.42 33.43,109.81 36.62,109.81 
			41.7,97.42 		"/>
		<polygon class="st0" points="133.23,109.81 142.19,109.81 142.19,107.06 136.47,107.06 136.47,97.42 133.23,97.42 		"/>
		<polygon class="st0" points="122.88,109.81 131.83,109.81 131.83,107.06 126.12,107.06 126.12,97.42 122.88,97.42 		"/>
		<path class="st0" d="M118.69,109.81h3.14l-5.16-12.38h-0.04h-3.1h-0.04l-5.16,12.38h3.14l0.89-2.21h5.45L118.69,109.81z
			 M113.37,105.08l1.69-4.23h0.02l1.7,4.23L113.37,105.08z"/>
		<path class="st0" d="M49.97,109.81h3.14l-5.16-12.38h-0.04h-3.1h-0.04l-5.16,12.38h3.14l0.89-2.21h5.45L49.97,109.81z
			 M44.65,105.08l1.69-4.23h0.02l1.7,4.23L44.65,105.08z"/>
	</g>
	<g>
		<g id="XMLID_611_">
			<path id="XMLID_629_" class="st0" d="M57.07,128.19h2.23v8.93h-2.23V128.19z"/>
			<path id="XMLID_627_" class="st0" d="M60.32,130.62h2.01v0.78c0.41-0.44,1.02-0.9,2.35-0.9c1.8,0,2.71,0.86,2.71,2.68v3.95h-2.11
				v-3.39c0-1.08-0.4-1.52-1.25-1.52c-1,0-1.61,0.6-1.61,1.72v3.19h-2.11V130.62z"/>
			<path id="XMLID_625_" class="st0" d="M68.08,132.67c0-3.15,2.15-4.64,4.78-4.64c2.4,0,4.01,1.23,4.26,3.29H74.9
				c-0.16-0.78-0.85-1.44-2.07-1.44c-1.31,0-2.39,0.75-2.39,2.77c0,2.01,1.08,2.77,2.39,2.77c1.07,0,1.85-0.52,2.05-1.37h2.23
				c-0.23,1.89-1.73,3.22-4.24,3.22C70.24,137.28,68.08,135.83,68.08,132.67z"/>
			<path id="XMLID_623_" class="st0" d="M84.88,133.17v3.95h-2.11v-3.39c0-1.08-0.4-1.52-1.25-1.52c-1,0-1.61,0.6-1.61,1.72v3.19
				h-2.11v-8.93h2.04v3.17c0.41-0.43,1.02-0.87,2.32-0.87C83.97,130.49,84.88,131.35,84.88,133.17z"/>
			<path id="XMLID_620_" class="st0" d="M85.45,135.26c0-0.86,0.44-1.53,2.07-1.91l2.14-0.5c0.33-0.07,0.43-0.16,0.43-0.33
				c0-0.33-0.32-0.63-1.18-0.63c-0.83,0-1.19,0.28-1.21,0.77H85.8c0-1.08,0.78-2.2,3.3-2.2c2.02,0,3.03,0.71,3.03,2.28v4.39h-1.88
				v-0.65c-0.39,0.37-1.07,0.81-2.29,0.81C86.29,137.28,85.45,136.45,85.45,135.26z M90.12,134.58v-0.56
				c-0.15,0.05-0.23,0.06-0.5,0.13l-1.31,0.33c-0.65,0.16-0.84,0.37-0.84,0.68c0,0.4,0.34,0.69,1.02,0.69
				C89.46,135.85,90.12,135.27,90.12,134.58z"/>
			<path id="XMLID_618_" class="st0" d="M93.1,130.62h2.04v0.94c0.38-0.56,0.88-1.06,2.15-1.06h0.45v1.89h-0.72
				c-1.32,0-1.81,0.32-1.81,1.76v2.98H93.1V130.62z"/>
			<path id="XMLID_615_" class="st0" d="M98.15,137.45h2.14c0.05,0.35,0.41,0.83,1.46,0.83c1.02,0,1.51-0.47,1.51-1.51v-0.61
				c-0.54,0.48-1.18,0.73-2.09,0.73c-1.93,0-3.26-1.14-3.26-3.2c0-2.12,1.39-3.24,3.26-3.24c0.89,0,1.51,0.26,2.11,0.73v-0.57h2.09
				v6.25c0,1.87-1.19,2.93-3.67,2.93C99.09,139.8,98.21,138.64,98.15,137.45z M103.26,133.71c0-1.01-0.64-1.67-1.65-1.67
				c-0.95,0-1.51,0.58-1.51,1.67c0,1.08,0.56,1.67,1.51,1.67C102.62,135.38,103.26,134.72,103.26,133.71z"/>
			<path id="XMLID_612_" class="st0" d="M113.46,134.4h-5.37c0.16,1.01,0.87,1.41,1.82,1.41c0.92,0,1.27-0.39,1.41-0.67h1.98
				c-0.3,1.22-1.44,2.14-3.48,2.14c-2.4,0-3.78-1.28-3.78-3.35c0-2.14,1.47-3.48,3.84-3.48c2.28,0,3.58,1.23,3.58,3.46V134.4z
				 M111.38,133.19c-0.03-0.65-0.49-1.27-1.55-1.27c-0.88,0-1.51,0.41-1.71,1.27H111.38z"/>
		</g>
	</g>
	<line class="st1" x1="28.35" y1="118.87" x2="142.19" y2="118.87"/>
</g>
<g id="::_Symbol">
	<g>
		<g>
			<path class="st2" d="M85.27,28.35c-15.66,0-28.35,12.69-28.35,28.35h56.69C113.61,41.04,100.92,28.35,85.27,28.35z"/>
			<path class="st3" d="M85.27,85.04c-15.66,0-28.35-12.69-28.35-28.35h56.69C113.61,72.35,100.92,85.04,85.27,85.04z"/>
		</g>
	</g>
	<path class="st4" d="M85.27,0C69.61,0,56.92,12.69,56.92,28.35h56.69C113.61,12.69,100.92,0,85.27,0z"/>
	<path class="st4" d="M85.27,165.47c-15.66,0-28.35-12.69-28.35-28.35h56.69C113.61,152.78,100.92,165.47,85.27,165.47z"/>
	<path class="st4" d="M0,120.71c0-15.66,12.69-28.35,28.35-28.35v56.69C12.69,149.06,0,136.37,0,120.71z"/>
	<path class="st4" d="M170.53,120.71c0,15.66-12.69,28.35-28.35,28.35V92.36C157.84,92.36,170.53,105.05,170.53,120.71z"/>
</g>
</svg>
